<?xml version="1.0" encoding="UTF-8"?>
<svg width="64" height="64" viewBox="0 0 64 64" xmlns="http://www.w3.org/2000/svg">
  <defs>
    <style>
      .primary{fill:#E2422B}
      .dark{fill:#8c1c12}
    </style>
  </defs>
  <circle class="primary" cx="32" cy="24" r="14"/>
  <rect class="dark" x="29" y="32" width="6" height="10" rx="2"/>
  <path class="primary" d="M32 8c9.94 0 18 8.06 18 18 0 6.7-3.74 12.53-9.3 15.58l-2.2-4.2c4.76-2.5 7.5-7.5 7.5-13.04 0-8.29-6.71-15-15-15s-15 6.71-15 15c0 5.54 2.74 10.54 7.5 13.04l-2.2 4.2C17.74 38.53 14 32.7 14 26 14 16.06 22.06 8 32 8z"/>
  <rect class="primary" x="18" y="44" width="28" height="4" rx="2"/>
</svg>